<mxfile host="app.diagrams.net" modified="2022-04-26T15:10:34.286Z" agent="5.0 (Windows NT 10.0; Win64; x64) AppleWebKit/537.36 (KHTML, like Gecko) Chrome/100.0.4896.127 Safari/537.36" etag="YJkM-Gljej9EVJ1jjQhI" version="17.4.6" type="github">
  <diagram id="TykX-LrfZgg3Iwyyrdei" name="Page-1">
    <mxGraphModel dx="1531" dy="739" grid="1" gridSize="10" guides="1" tooltips="1" connect="1" arrows="1" fold="1" page="1" pageScale="1" pageWidth="850" pageHeight="1100" math="1" shadow="0">
      <root>
        <mxCell id="0" />
        <mxCell id="1" parent="0" />
        <mxCell id="o9J_iS0wE7Zmoxf9mp8P-1" value="&lt;font style=&quot;font-size: 40px&quot; color=&quot;#069968&quot;&gt;$$\lambda \equiv \Delta \underset \rightarrow {@}&amp;nbsp; &amp;nbsp;\mathcal{U}$$&lt;/font&gt;" style="text;html=1;align=center;verticalAlign=middle;resizable=0;points=[];autosize=1;strokeColor=none;fillColor=none;" vertex="1" parent="1">
          <mxGeometry x="-250" y="235" width="1180" height="30" as="geometry" />
        </mxCell>
        <mxCell id="o9J_iS0wE7Zmoxf9mp8P-2" value="&lt;font color=&quot;#0000c4&quot;&gt;$$\lambda \equiv \frac{\delta \mathbb{Q}}{\delta \mathbb{K}}\times \mathcal{L}\underset \rightarrow {@} \mathcal U $$&lt;/font&gt;" style="text;html=1;align=center;verticalAlign=middle;resizable=0;points=[];autosize=1;strokeColor=none;fillColor=none;fontSize=40;fontColor=#069968;" vertex="1" parent="1">
          <mxGeometry x="-645" y="330" width="2100" height="50" as="geometry" />
        </mxCell>
        <mxCell id="o9J_iS0wE7Zmoxf9mp8P-3" value="" style="endArrow=none;html=1;rounded=0;fontSize=40;fontColor=#0000C4;strokeColor=#FF0000;" edge="1" parent="1">
          <mxGeometry width="50" height="50" relative="1" as="geometry">
            <mxPoint x="220" y="290" as="sourcePoint" />
            <mxPoint x="460" y="290" as="targetPoint" />
          </mxGeometry>
        </mxCell>
        <mxCell id="o9J_iS0wE7Zmoxf9mp8P-4" value="" style="endArrow=none;html=1;rounded=0;fontSize=40;fontColor=#0000C4;strokeColor=#FF0000;" edge="1" parent="1">
          <mxGeometry width="50" height="50" relative="1" as="geometry">
            <mxPoint x="220" y="200" as="sourcePoint" />
            <mxPoint x="460" y="200" as="targetPoint" />
          </mxGeometry>
        </mxCell>
      </root>
    </mxGraphModel>
  </diagram>
</mxfile>
